<?xml version="1.0" encoding="utf-8"?>
<!DOCTYPE svg PUBLIC "-//W3C//DTD SVG 1.1//EN" "http://www.w3.org/Graphics/SVG/1.1/DTD/svg11.dtd">
<svg class="svg" xmlns="http://www.w3.org/2000/svg" viewBox="0 0 48 48" fill="#000" role="img" aria-labelledby="login_svg_title login_svg_desc">
  <title id="login_svg_title">Effettua l'accesso col tuo utente QN</title>
  <desc id="login_svg_desc"></desc>
  <g>
    <g class="styleme">
      <path d="M24 2c12.1 0 22 9.9 22 22s-9.9 22-22 22S2 36.1 2 24 11.9 2 24 2m0-2C10.7 0 0 10.7 0 24s10.7 24 24 24 24-10.7 24-24S37.3 0 24 0z"></path>
      <path d="M28.9 34.3c-.1-1.5-.1-2.6-.1-4 .7-.4 2-2.7 2.3-4.7.6 0 1.5-.6 1.7-2.7.1-1.1-.4-1.8-.8-2 .9-2.7 2.9-11-3.6-11.8-.7-1.1-2.4-1.7-4.6-1.7-8.9.2-9.9 6.4-8 13.5-.3.2-.9.8-.8 2 .3 2.1 1.2 2.6 1.7 2.7.2 2 1.6 4.3 2.3 4.7 0 1.4.1 2.5-.1 4-1.3 3.2-7.3 2.8-11.1 5.9 3.9 3.8 9.9 6.6 16.6 6.6s13.6-4.7 14.9-6c-3.4-3.2-9.1-3.3-10.4-6.5z"></path>
    </g>
  </g>
</svg>
