<?xml version="1.0" encoding="utf-8"?>
<!DOCTYPE svg PUBLIC "-//W3C//DTD SVG 1.1//EN" "http://www.w3.org/Graphics/SVG/1.1/DTD/svg11.dtd">
<svg class="svg" viewBox="0 0 8 10" version="1.1" xmlns="http://www.w3.org/2000/svg" fill="#318ADC">
    <g class="styleme">
        <path d="M6,3.75 C6,4.785 5.105,5.625 4,5.625 C2.895,5.625 2,4.785 2,3.75 C2,2.715 2.895,1.875 4,1.875 C5.105,1.875 6,2.714 6,3.75 M8,3.636 C8,1.628 6.209,0 4,0 C1.791,0 0,1.628 0,3.636 C0,4.519 0.347,5.329 0.922,5.959 L4.003,10 L7.13,5.9 C7.242,5.772 7.345,5.637 7.437,5.496 L7.469,5.455 L7.464,5.455 C7.804,4.92 8,4.299 8,3.636"></path>
    </g>
</svg>
